<svg width="134" height="32" viewBox="0 0 134 32" fill="none" xmlns="http://www.w3.org/2000/svg">
<path d="M10.16 28.16C8.26133 28.16 6.544 27.7333 5.008 26.88C3.49333 26.0267 2.288 24.7787 1.392 23.136C0.496 21.472 0.0480001 19.488 0.0480001 17.184C0.0480001 13.9413 0.634667 11.0827 1.808 8.608C3.00267 6.13333 4.61333 4.224 6.64 2.88C8.688 1.536 10.9493 0.863998 13.424 0.863998C15.3227 0.863998 17.0293 1.29067 18.544 2.144C20.08 2.99733 21.296 4.256 22.192 5.92C23.088 7.56267 23.536 9.536 23.536 11.84C23.536 15.0827 22.9387 17.9413 21.744 20.416C20.5707 22.8907 18.96 24.8 16.912 26.144C14.8853 27.488 12.6347 28.16 10.16 28.16ZM10.48 24.384C12.144 24.384 13.6053 23.872 14.864 22.848C16.144 21.824 17.1253 20.4053 17.808 18.592C18.4907 16.7573 18.832 14.688 18.832 12.384C18.832 9.84533 18.2987 7.92533 17.232 6.624C16.1653 5.30133 14.7893 4.64 13.104 4.64C11.4613 4.64 10.0107 5.152 8.752 6.176C7.49333 7.17867 6.512 8.59733 5.808 10.432C5.104 12.2453 4.752 14.3147 4.752 16.64C4.752 19.1787 5.28533 21.1093 6.352 22.432C7.41867 23.7333 8.79467 24.384 10.48 24.384ZM31.8125 28.16C30.8525 28.16 30.0632 27.7227 29.4445 26.848C28.8472 25.952 28.5485 24.8427 28.5485 23.52C28.5485 21.92 28.6552 20.4587 28.8685 19.136C29.0818 17.792 29.4338 16.3733 29.9245 14.88C30.1378 14.24 30.4365 13.7813 30.8205 13.504C31.2045 13.2267 31.8125 13.088 32.6445 13.088C33.1138 13.088 33.4338 13.1627 33.6045 13.312C33.7965 13.4613 33.8925 13.6853 33.8925 13.984C33.8925 14.1547 33.7752 14.7307 33.5405 15.712C33.3272 16.5013 33.1565 17.216 33.0285 17.856C32.6018 20.096 32.3885 21.5893 32.3885 22.336C32.3885 22.784 32.4418 23.104 32.5485 23.296C32.6552 23.4667 32.8258 23.552 33.0605 23.552C33.3805 23.552 33.7752 23.232 34.2445 22.592C34.7352 21.952 35.2472 20.9813 35.7805 19.68C36.3352 18.3787 36.8685 16.7787 37.3805 14.88C37.5512 14.24 37.8072 13.7813 38.1485 13.504C38.5112 13.2267 39.0445 13.088 39.7485 13.088C40.2392 13.088 40.5805 13.152 40.7725 13.28C40.9645 13.3867 41.0605 13.6 41.0605 13.92C41.0605 14.4533 40.7938 15.9147 40.2605 18.304C39.6632 21.0347 39.3645 22.72 39.3645 23.36C39.3645 23.7653 39.4498 24.0853 39.6205 24.32C39.7912 24.5333 40.0152 24.64 40.2925 24.64C40.7192 24.64 41.2205 24.384 41.7965 23.872C42.3938 23.3387 43.1832 22.4853 44.1645 21.312C44.4205 21.0133 44.7085 20.864 45.0285 20.864C45.3058 20.864 45.5192 20.992 45.6685 21.248C45.8392 21.504 45.9245 21.856 45.9245 22.304C45.9245 23.1573 45.7218 23.8187 45.3165 24.288C44.3992 25.4187 43.4072 26.3467 42.3405 27.072C41.2952 27.7973 40.1005 28.16 38.7565 28.16C37.7325 28.16 36.9752 27.7653 36.4845 26.976C36.0152 26.1867 35.7805 25.0773 35.7805 23.648C35.4178 25.0987 34.8738 26.2187 34.1485 27.008C33.4232 27.776 32.6445 28.16 31.8125 28.16ZM59.4578 17.472C59.9271 17.472 60.3218 17.6427 60.6418 17.984C60.9831 18.304 61.1538 18.7093 61.1538 19.2C61.1538 19.4773 61.0898 19.776 60.9618 20.096C60.6204 20.8853 60.1404 21.5467 59.5218 22.08C58.9031 22.6133 58.2204 22.88 57.4738 22.88C56.8764 22.88 56.3644 22.6667 55.9378 22.24C55.5324 21.8133 55.3298 21.2373 55.3298 20.512C55.3298 20.1067 55.3511 19.6693 55.3938 19.2C55.4364 18.8587 55.4578 18.624 55.4578 18.496C55.4578 18.3253 55.4151 18.1973 55.3298 18.112C55.2658 18.0267 55.1804 17.984 55.0738 17.984C54.7751 17.984 54.3698 18.3467 53.8578 19.072C53.3458 19.776 52.8338 20.7147 52.3218 21.888C51.8098 23.0613 51.3938 24.2987 51.0738 25.6C50.8391 26.624 50.5724 27.3067 50.2738 27.648C49.9751 27.9893 49.4844 28.16 48.8018 28.16C47.9911 28.16 47.4151 27.7333 47.0738 26.88C46.7538 26.0267 46.5938 24.6613 46.5938 22.784C46.5938 20.0107 46.9884 17.376 47.7778 14.88C47.9698 14.2613 48.2791 13.8133 48.7058 13.536C49.1538 13.2373 49.7724 13.088 50.5618 13.088C50.9884 13.088 51.2871 13.1413 51.4578 13.248C51.6284 13.3547 51.7138 13.5573 51.7138 13.856C51.7138 14.1973 51.5538 14.9653 51.2338 16.16C51.0204 17.0133 50.8498 17.76 50.7218 18.4C50.5938 19.04 50.4871 19.8293 50.4018 20.768C51.1058 18.9333 51.8951 17.44 52.7698 16.288C53.6444 15.136 54.4978 14.3147 55.3298 13.824C56.1618 13.3333 56.9191 13.088 57.6018 13.088C58.2204 13.088 58.6898 13.2693 59.0098 13.632C59.3511 13.9733 59.5218 14.4853 59.5218 15.168C59.5218 15.5733 59.4044 16.3413 59.1698 17.472H59.4578ZM102.042 8.928C102.042 10.7413 101.573 12.4053 100.634 13.92C99.6956 15.4347 98.3303 16.672 96.5383 17.632C94.7463 18.592 92.6129 19.1573 90.1383 19.328L88.7623 27.04C88.2289 30.0053 86.7783 31.488 84.4103 31.488C83.1089 31.488 81.9036 31.104 80.7943 30.336C79.7063 29.568 78.8316 28.3947 78.1703 26.816C77.5089 25.2373 77.1783 23.296 77.1783 20.992C77.1783 16.6613 77.8716 12.992 79.2583 9.984C80.6663 6.95467 82.5436 4.69333 84.8903 3.2C87.2583 1.68533 89.8609 0.927999 92.6983 0.927999C94.7036 0.927999 96.3996 1.28 97.7863 1.984C99.1943 2.688 100.25 3.648 100.954 4.864C101.68 6.05866 102.042 7.41333 102.042 8.928ZM90.7143 16.032C95.0876 15.4773 97.2743 13.2053 97.2743 9.216C97.2743 7.808 96.8049 6.66667 95.8663 5.792C94.9489 4.896 93.5196 4.448 91.5783 4.448C89.3809 4.448 87.4609 5.14133 85.8183 6.528C84.1969 7.91467 82.9383 9.84533 82.0423 12.32C81.1676 14.7733 80.7303 17.5787 80.7303 20.736C80.7303 22.0587 80.8583 23.232 81.1143 24.256C81.3916 25.28 81.7329 26.08 82.1383 26.656C82.5649 27.2107 82.9703 27.488 83.3543 27.488C83.8876 27.488 84.2929 26.752 84.5703 25.28L85.6263 19.232C84.7943 19.104 84.4316 19.0507 84.5383 19.072C83.8983 18.9653 83.4823 18.7733 83.2903 18.496C83.0983 18.1973 83.0023 17.824 83.0023 17.376C83.0023 16.9067 83.1303 16.5333 83.3863 16.256C83.6636 15.9787 84.0369 15.84 84.5063 15.84C84.7196 15.84 84.8796 15.8507 84.9863 15.872C85.4983 15.9573 85.8929 16.0107 86.1703 16.032C86.4476 14.368 86.8423 12.1387 87.3543 9.344C87.4823 8.61867 87.7703 8.10667 88.2183 7.808C88.6876 7.488 89.2316 7.328 89.8503 7.328C90.5543 7.328 91.0556 7.46667 91.3543 7.744C91.6743 8 91.8343 8.416 91.8343 8.992C91.8343 9.33333 91.8129 9.61067 91.7703 9.824L90.7143 16.032ZM118.871 20.864C119.148 20.864 119.361 20.992 119.51 21.248C119.681 21.504 119.767 21.856 119.767 22.304C119.767 23.1573 119.564 23.8187 119.159 24.288C118.369 25.248 117.249 26.1333 115.799 26.944C114.369 27.7547 112.833 28.16 111.191 28.16C108.951 28.16 107.212 27.552 105.975 26.336C104.737 25.12 104.118 23.456 104.118 21.344C104.118 19.872 104.428 18.5067 105.047 17.248C105.665 15.968 106.519 14.9547 107.607 14.208C108.716 13.4613 109.964 13.088 111.351 13.088C112.588 13.088 113.58 13.4613 114.327 14.208C115.073 14.9333 115.447 15.9253 115.447 17.184C115.447 18.656 114.913 19.9253 113.847 20.992C112.801 22.0373 111.02 22.8693 108.503 23.488C109.036 24.4693 110.049 24.96 111.543 24.96C112.503 24.96 113.591 24.6293 114.807 23.968C116.044 23.2853 117.111 22.4 118.007 21.312C118.263 21.0133 118.551 20.864 118.871 20.864ZM110.807 16.224C110.017 16.224 109.345 16.6827 108.791 17.6C108.257 18.5173 107.991 19.6267 107.991 20.928V20.992C109.249 20.6933 110.241 20.2453 110.967 19.648C111.692 19.0507 112.055 18.3573 112.055 17.568C112.055 17.1627 111.937 16.8427 111.703 16.608C111.489 16.352 111.191 16.224 110.807 16.224ZM125.641 16.128C125.598 17.1947 125.577 18.0267 125.577 18.624C125.577 20.16 125.652 21.3653 125.801 22.24C125.972 23.0933 126.238 23.712 126.601 24.096C126.985 24.4587 127.508 24.64 128.169 24.64C128.51 24.64 128.916 24.5333 129.385 24.32C129.854 24.1067 130.281 23.8293 130.665 23.488C130.9 23.2747 131.134 23.168 131.369 23.168C131.625 23.168 131.828 23.3173 131.977 23.616C132.148 23.8933 132.233 24.2347 132.233 24.64C132.233 25.0453 132.148 25.44 131.977 25.824C131.828 26.208 131.593 26.528 131.273 26.784C130.164 27.7013 128.905 28.16 127.497 28.16C125.47 28.16 123.988 27.3173 123.049 25.632C122.11 23.9253 121.641 21.7067 121.641 18.976C121.641 18.0373 121.673 17.088 121.737 16.128H120.489C119.849 16.128 119.412 16.0107 119.177 15.776C118.964 15.5413 118.857 15.168 118.857 14.656C118.857 13.4613 119.337 12.864 120.297 12.864H122.121C122.484 10.5173 123.038 8.37333 123.785 6.432C124.532 4.49067 125.428 2.944 126.473 1.792C127.54 0.639999 128.681 0.0639992 129.897 0.0639992C130.793 0.0639992 131.497 0.458666 132.009 1.248C132.521 2.03733 132.777 3.02933 132.777 4.224C132.777 7.53067 131.39 10.4107 128.617 12.864H132.201C132.542 12.864 132.788 12.9387 132.937 13.088C133.086 13.2373 133.161 13.5147 133.161 13.92C133.161 15.392 131.956 16.128 129.545 16.128H125.641ZM129.033 3.136C128.713 3.136 128.35 3.54133 127.945 4.352C127.561 5.14133 127.188 6.25067 126.825 7.68C126.484 9.088 126.196 10.656 125.961 12.384C127.22 11.296 128.158 10.08 128.777 8.736C129.417 7.37067 129.737 6.13333 129.737 5.024C129.737 3.76533 129.502 3.136 129.033 3.136Z" fill="#3781E3"/>
</svg>
