<svg width="80" height="80" viewBox="0 0 80 80" fill="none" xmlns="http://www.w3.org/2000/svg">
<circle cx="40" cy="40" r="40" fill="#3781E3" fill-opacity="0.15"/>
<path d="M39.4998 23.4165C30.0528 23.4165 22.4165 31.0528 22.4165 40.4998C22.4165 49.9469 30.0528 57.5832 39.4998 57.5832C44.0306 57.5832 48.3758 55.7833 51.5796 52.5796C54.7833 49.3758 56.5832 45.0306 56.5832 40.4998C56.5832 31.0528 48.8957 23.4165 39.4998 23.4165ZM39.4998 54.1665C35.8752 54.1665 32.399 52.7266 29.836 50.1636C27.273 47.6006 25.8332 44.1245 25.8332 40.4998C25.8332 36.8752 27.273 33.399 29.836 30.836C32.399 28.273 35.8752 26.8332 39.4998 26.8332C43.1245 26.8332 46.6006 28.273 49.1636 30.836C51.7266 33.399 53.1665 36.8752 53.1665 40.4998C53.1665 44.1245 51.7266 47.6006 49.1636 50.1636C46.6006 52.7266 43.1245 54.1665 39.4998 54.1665ZM46.6407 33.2565L44.8298 35.0673L43.019 33.2565L41.2082 35.0673L43.019 36.8782L41.2082 38.689L43.019 40.4998L44.8298 38.689L46.6407 40.4998L48.4515 38.689L46.6407 36.8782L48.4515 35.0673L46.6407 33.2565ZM32.359 40.4998L34.1698 38.689L35.9807 40.4998L37.7915 38.689L35.9807 36.8782L37.7915 35.0673L35.9807 33.2565L34.1698 35.0673L32.359 33.2565L30.5482 35.0673L32.359 36.8782L30.5482 38.689L32.359 40.4998ZM39.4998 43.9165C35.5194 43.9165 32.1369 46.4107 30.7703 49.8957H48.2294C46.8628 46.4107 43.4803 43.9165 39.4998 43.9165Z" fill="#3781E3"/>
</svg>
