<svg width="80" height="80" viewBox="0 0 80 80" fill="none" xmlns="http://www.w3.org/2000/svg">
<circle cx="40" cy="40" r="40" fill="#3781E3" fill-opacity="0.15"/>
<path d="M46.3834 30.2035C46.1071 30.2035 45.8421 30.3133 45.6468 30.5086C45.4514 30.704 45.3417 30.9689 45.3417 31.2452C45.3417 31.5215 45.4514 31.7864 45.6468 31.9818C45.8421 32.1771 46.1071 32.2869 46.3834 32.2869C47.4417 32.2869 48.665 33.3144 48.7959 34.7477C48.8209 35.0229 48.9543 35.2768 49.1666 35.4536C49.3789 35.6305 49.6528 35.7157 49.9279 35.6906C50.2031 35.6655 50.457 35.5322 50.6339 35.3199C50.8107 35.1076 50.8959 34.8337 50.8709 34.5585C50.6509 32.1585 48.6234 30.2035 46.3825 30.2035H46.3834ZM37.725 26.8569C35.785 25.0535 33.4484 24.791 31.4075 25.2377C29.4017 25.676 27.5992 26.8085 26.5175 27.9544C25.1842 29.3652 23.9317 31.1735 23.8259 33.786V33.7927C23.7809 35.0785 23.9484 36.9777 24.9725 38.3885L25.0875 38.5485C26.1167 39.9735 26.725 40.8169 27.0267 41.6619L27.0292 41.6685C27.3742 42.6135 27.3834 43.5544 27.3959 44.8894L27.3992 45.2477C27.4175 47.0977 27.945 50.0677 29.3609 52.236C30.0442 53.2844 30.9817 54.2135 32.2359 54.6794L32.2842 54.6977L32.3342 54.7102C33.3317 54.9735 34.2759 54.9185 35.04 54.3535C35.7534 53.826 36.1 53.0019 36.3009 52.2352C36.505 51.451 36.6034 50.5327 36.6809 49.6235C36.7034 49.3569 36.7242 49.0919 36.745 48.826C36.7984 48.151 36.8509 47.4744 36.9334 46.791C36.9906 46.2934 37.0693 45.7985 37.1692 45.3077C37.4609 43.9135 37.7959 43.106 38.1184 42.6269C38.4034 42.2019 38.6909 42.016 39.01 41.901C39.9559 41.6619 40.555 41.7852 40.9617 42.016C41.3984 42.2635 41.7775 42.726 42.0925 43.4452C42.74 44.9252 42.9242 47.016 43.0784 48.9044V48.9069C43.2367 50.7852 43.6317 52.4994 44.3717 53.6035C44.7525 54.1719 45.2917 54.6777 46.0275 54.8552C46.7792 55.0369 47.5167 54.8244 48.17 54.4052L48.1709 54.4044C50.5625 52.8669 51.9434 49.5819 52.3209 45.396C52.4792 43.6227 52.6867 42.6835 53.0125 41.8594C53.2767 41.1927 53.6184 40.591 54.14 39.6744L54.1417 39.6727C54.3009 39.3919 54.4784 39.081 54.675 38.7302C55.2117 37.7769 56.0759 36.0569 56.1725 34.0494C56.2725 31.9677 55.54 29.6727 53.07 27.6919C50.7117 25.781 48.52 25.086 46.5642 25.1902C44.6242 25.2935 43.0709 26.1744 41.9617 27.1302L41.9359 27.1527L41.9117 27.176C40.8225 28.2444 40.3109 28.4469 39.9675 28.4319C39.5842 28.4152 38.9784 28.1169 37.755 26.886L37.7409 26.871L37.725 26.8569ZM28.0317 29.3852C28.8417 28.5277 30.2767 27.6177 31.8525 27.2727C33.3875 26.9369 34.9692 27.1477 36.2925 28.3694C37.4725 29.5552 38.5959 30.4577 39.8767 30.5135C41.1942 30.5719 42.285 29.7252 43.345 28.6885C44.2159 27.9452 45.3367 27.3419 46.675 27.2702C48.0084 27.1994 49.71 27.6502 51.76 29.3119L51.765 29.316C53.7009 30.8677 54.16 32.5144 54.0909 33.9494C54.0192 35.4577 53.355 36.8277 52.8584 37.7077L52.8567 37.711C52.69 38.011 52.53 38.2919 52.3784 38.5569C51.835 39.5102 51.3984 40.2777 51.0759 41.0927C50.6442 42.1827 50.4134 43.3477 50.245 45.2094C49.8884 49.1744 48.62 51.6394 47.045 52.651C46.7117 52.8652 46.5567 52.8394 46.5167 52.8302C46.4609 52.8169 46.3092 52.7527 46.1025 52.4444C45.6667 51.7944 45.305 50.5219 45.1542 48.7335V48.7327L45.1475 48.6535C45.0025 46.8735 44.8042 44.4452 44.0009 42.6094C43.5834 41.656 42.9575 40.7527 41.99 40.2035C40.9984 39.6419 39.8059 39.5402 38.4442 39.8952L38.4075 39.9052L38.3717 39.9177C37.63 40.1702 36.9517 40.6277 36.3884 41.4652C35.8525 42.2627 35.4467 43.3677 35.13 44.8819C35.0175 45.4314 34.9288 45.9855 34.8642 46.5427C34.7775 47.2727 34.7192 48.0144 34.6642 48.7044C34.645 48.9602 34.625 49.2094 34.605 49.4469C34.5275 50.3577 34.44 51.1152 34.285 51.7085C34.125 52.3202 33.9384 52.5769 33.8017 52.6777C33.7184 52.7394 33.505 52.8552 32.915 52.7085C32.2234 52.4377 31.6192 51.8852 31.105 51.0977C29.9775 49.3702 29.4984 46.8327 29.4825 45.226V45.2244L29.4792 44.8219C29.4709 43.5602 29.4609 42.2569 28.9875 40.9577C28.5817 39.8244 27.8017 38.7452 26.88 37.4719L26.6609 37.1685L26.6592 37.166C26.0509 36.3285 25.8675 35.0135 25.9067 33.8669C25.985 31.9652 26.8709 30.6144 28.0317 29.3852ZM39.01 41.901L38.9709 41.911L39.0442 41.8894C39.0328 41.8932 39.0214 41.8971 39.01 41.901Z" fill="#3781E3"/>
</svg>
