<svg width="80" height="80" viewBox="0 0 80 80" fill="none" xmlns="http://www.w3.org/2000/svg">
<circle cx="40" cy="40" r="40" fill="#3781E3" fill-opacity="0.15"/>
<path d="M52.125 34.5H43.125C42.5284 34.5006 41.9565 34.7444 41.5347 35.178C41.1128 35.6115 40.8756 36.1994 40.875 36.8125V43.75H28.5V32.1875H26.25V50.6875H28.5V46.0625H55.5V50.6875H57.75V40.2812C57.7482 38.7485 57.155 37.2791 56.1005 36.1953C55.046 35.1115 53.6163 34.5018 52.125 34.5ZM55.5 43.75H43.125V36.8125H52.125C53.0198 36.8134 53.8778 37.1792 54.5105 37.8295C55.1432 38.4798 55.4991 39.3616 55.5 40.2812V43.75Z" fill="#488FDD"/>
<path d="M34.6875 35.6562C35.0213 35.6562 35.3475 35.758 35.625 35.9485C35.9025 36.1391 36.1188 36.41 36.2465 36.7269C36.3743 37.0438 36.4077 37.3925 36.3426 37.729C36.2775 38.0654 36.1167 38.3745 35.8807 38.617C35.6447 38.8596 35.3441 39.0248 35.0167 39.0917C34.6894 39.1586 34.3501 39.1242 34.0417 38.993C33.7334 38.8617 33.4698 38.6394 33.2844 38.3542C33.099 38.069 33 37.7337 33 37.3906C33.0006 36.9308 33.1786 36.49 33.4949 36.1649C33.8113 35.8398 34.2401 35.6569 34.6875 35.6562ZM34.6875 33.3438C33.9087 33.3438 33.1475 33.5811 32.4999 34.0258C31.8524 34.4704 31.3477 35.1025 31.0497 35.842C30.7517 36.5814 30.6737 37.3951 30.8257 38.1801C30.9776 38.9651 31.3526 39.6862 31.9033 40.2522C32.4539 40.8182 33.1555 41.2036 33.9193 41.3597C34.6831 41.5159 35.4748 41.4357 36.1943 41.1294C36.9138 40.8232 37.5288 40.3045 37.9614 39.6389C38.3941 38.9734 38.625 38.191 38.625 37.3906C38.625 36.3173 38.2102 35.288 37.4717 34.5291C36.7333 33.7701 35.7318 33.3438 34.6875 33.3438ZM47.625 22.9375H43.125V18.3125H40.875V22.9375H36.375V25.25H40.875V29.875H43.125V25.25H47.625V22.9375Z" fill="#488FDD"/>
</svg>
