<svg width="80" height="80" viewBox="0 0 80 80" fill="none" xmlns="http://www.w3.org/2000/svg">
<circle cx="40" cy="40" r="40" fill="#3781E3" fill-opacity="0.15"/>
<path d="M34.6915 35.9654C36.5555 35.6469 37.9379 33.9401 38.1483 31.9012C38.3619 29.8277 38.8435 21.495 35.7323 22.025C27.6618 23.4012 28.2282 37.0673 34.6915 35.9654ZM45.31 35.9654C51.7717 37.0673 52.3381 23.4012 44.2676 22.0242C41.1571 21.4942 41.638 29.8269 41.8508 31.9004C42.062 33.9401 43.446 35.6469 45.31 35.9654ZM31.3762 42.404C31.3762 41.3198 30.9914 40.3369 30.3714 39.6218C29.3514 38.2819 26.1089 35.5721 25.3129 36.2662C23.6513 37.7188 23.7049 41.294 24.7057 43.892C25.2201 45.3365 26.4625 46.3524 27.9146 46.3524C29.8258 46.3524 31.3762 44.5845 31.3762 42.404ZM54.6861 36.2662C53.8917 35.5721 50.6493 38.2819 49.6293 39.6218C49.0093 40.3369 48.6237 41.3198 48.6237 42.404C48.6237 44.5845 50.1757 46.3524 52.0853 46.3524C53.5381 46.3524 54.7813 45.3365 55.2958 43.892C56.2942 41.294 56.3494 37.7188 54.6861 36.2662ZM48.1772 48.5538C45.2364 47.0795 45.3276 44.2402 44.6588 41.6495C44.1268 39.5832 42.2428 38.055 40.0003 38.055C38.9602 38.0522 37.9472 38.3888 37.1136 39.0142C36.2799 39.6396 35.6706 40.52 35.3771 41.5232C34.6611 44.0022 35.0923 46.888 31.8866 48.5345C29.2826 49.3879 28.2282 50.6329 28.2282 53.5775C28.2282 55.9696 30.2706 58.5305 32.9066 58.849C35.8475 59.2946 38.1419 58.7123 40.0003 57.6474C41.8588 58.7123 44.1516 59.2938 47.0972 58.849C49.7317 58.5305 51.7749 55.9792 51.7749 53.5775C51.7741 50.5686 50.7869 49.4474 48.1772 48.5538ZM44.7076 52.1523H41.6588L41.6628 55.3696H38.3379L38.3427 52.1523H35.1075V48.935H38.3435L38.3387 45.7178H41.6636L41.6596 48.935H44.7076V52.1523Z" fill="#458DDE"/>
</svg>
