<svg width="80" height="80" viewBox="0 0 80 80" fill="none" xmlns="http://www.w3.org/2000/svg">
<circle cx="40" cy="40" r="40" fill="#3781E3" fill-opacity="0.15"/>
<path fill-rule="evenodd" clip-rule="evenodd" d="M21 33C21 32.2044 21.3161 31.4413 21.8787 30.8787C22.4413 30.3161 23.2044 30 24 30H44C44.7956 30 45.5587 30.3161 46.1213 30.8787C46.6839 31.4413 47 32.2044 47 33V35H52.718C53.4723 35.0001 54.1989 35.2843 54.753 35.796L60.035 40.671C60.3394 40.952 60.5822 41.293 60.7483 41.6725C60.9144 42.052 61.0001 42.4618 61 42.876V51H55V49H59V42.876C59 42.7379 58.9714 42.6013 58.916 42.4748C58.8605 42.3483 58.7795 42.2346 58.678 42.141L53.396 37.265C53.2113 37.0946 52.9693 37 52.718 37H47V49H49V51H32V49H45V33C45 32.7348 44.8946 32.4804 44.7071 32.2929C44.5196 32.1054 44.2652 32 44 32H24C23.7348 32 23.4804 32.1054 23.2929 32.2929C23.1054 32.4804 23 32.7348 23 33V49H26V51H21V33Z" fill="#3781E3"/>
<path fill-rule="evenodd" clip-rule="evenodd" d="M29 52C29.5304 52 30.0391 51.7893 30.4142 51.4142C30.7893 51.0391 31 50.5304 31 50C31 49.4696 30.7893 48.9609 30.4142 48.5858C30.0391 48.2107 29.5304 48 29 48C28.4696 48 27.9609 48.2107 27.5858 48.5858C27.2107 48.9609 27 49.4696 27 50C27 50.5304 27.2107 51.0391 27.5858 51.4142C27.9609 51.7893 28.4696 52 29 52ZM29 54C30.0609 54 31.0783 53.5786 31.8284 52.8284C32.5786 52.0783 33 51.0609 33 50C33 48.9391 32.5786 47.9217 31.8284 47.1716C31.0783 46.4214 30.0609 46 29 46C27.9391 46 26.9217 46.4214 26.1716 47.1716C25.4214 47.9217 25 48.9391 25 50C25 51.0609 25.4214 52.0783 26.1716 52.8284C26.9217 53.5786 27.9391 54 29 54ZM52 52C52.5304 52 53.0391 51.7893 53.4142 51.4142C53.7893 51.0391 54 50.5304 54 50C54 49.4696 53.7893 48.9609 53.4142 48.5858C53.0391 48.2107 52.5304 48 52 48C51.4696 48 50.9609 48.2107 50.5858 48.5858C50.2107 48.9609 50 49.4696 50 50C50 50.5304 50.2107 51.0391 50.5858 51.4142C50.9609 51.7893 51.4696 52 52 52ZM52 54C53.0609 54 54.0783 53.5786 54.8284 52.8284C55.5786 52.0783 56 51.0609 56 50C56 48.9391 55.5786 47.9217 54.8284 47.1716C54.0783 46.4214 53.0609 46 52 46C50.9391 46 49.9217 46.4214 49.1716 47.1716C48.4214 47.9217 48 48.9391 48 50C48 51.0609 48.4214 52.0783 49.1716 52.8284C49.9217 53.5786 50.9391 54 52 54ZM60 44H46V42H60V44ZM33 43V35H35V43H33ZM50 32C50.2652 32 50.5196 32.1054 50.7071 32.2929C50.8946 32.4804 51 32.7348 51 33V36H49V33C49 32.7348 49.1054 32.4804 49.2929 32.2929C49.4804 32.1054 49.7348 32 50 32Z" fill="#3781E3"/>
<path fill-rule="evenodd" clip-rule="evenodd" d="M38 40H30V38H38V40ZM52 36H48V34H52V36ZM50 29.5C49.7348 29.5 49.4804 29.3946 49.2929 29.2071C49.1054 29.0196 49 28.7652 49 28.5V27C49 26.7348 49.1054 26.4804 49.2929 26.2929C49.4804 26.1054 49.7348 26 50 26C50.2652 26 50.5196 26.1054 50.7071 26.2929C50.8946 26.4804 51 26.7348 51 27V28.5C51 28.7652 50.8946 29.0196 50.7071 29.2071C50.5196 29.3946 50.2652 29.5 50 29.5ZM53.5 33C53.5 32.7348 53.6054 32.4804 53.7929 32.2929C53.9804 32.1054 54.2348 32 54.5 32H56C56.2652 32 56.5196 32.1054 56.7071 32.2929C56.8946 32.4804 57 32.7348 57 33C57 33.2652 56.8946 33.5196 56.7071 33.7071C56.5196 33.8946 56.2652 34 56 34H54.5C54.2348 34 53.9804 33.8946 53.7929 33.7071C53.6054 33.5196 53.5 33.2652 53.5 33ZM52.759 30.171C52.5811 29.9744 52.4886 29.7153 52.5017 29.4505C52.5148 29.1857 52.6326 28.937 52.829 28.759L53.743 27.931C53.8402 27.8424 53.954 27.7739 54.0778 27.7293C54.2015 27.6848 54.3329 27.6651 54.4643 27.6714C54.5957 27.6777 54.7245 27.7098 54.8435 27.766C54.9624 27.8222 55.0691 27.9013 55.1574 27.9988C55.2458 28.0962 55.314 28.2102 55.3582 28.334C55.4024 28.4579 55.4218 28.5893 55.4152 28.7207C55.4085 28.8521 55.376 28.9808 55.3195 29.0996C55.2631 29.2184 55.1837 29.3249 55.086 29.413L54.172 30.241C54.0746 30.3292 53.9609 30.3974 53.8372 30.4416C53.7134 30.4859 53.5822 30.5053 53.451 30.4988C53.3198 30.4923 53.1911 30.46 53.0724 30.4038C52.9536 30.3475 52.8472 30.2684 52.759 30.171Z" fill="#3781E3"/>
</svg>
