<svg width="43" height="43" viewBox="0 0 43 43" fill="none" xmlns="http://www.w3.org/2000/svg">
<path d="M34.0417 23.2917V32.25C34.0417 33.2354 33.2354 34.0417 32.25 34.0417H10.75C9.76458 34.0417 8.95833 33.2354 8.95833 32.25V23.2917C8.95833 22.3062 8.15208 21.5 7.16667 21.5C6.18125 21.5 5.375 22.3062 5.375 23.2917V34.0417C5.375 36.0125 6.9875 37.625 8.95833 37.625H34.0417C36.0125 37.625 37.625 36.0125 37.625 34.0417V23.2917C37.625 22.3062 36.8187 21.5 35.8333 21.5C34.8479 21.5 34.0417 22.3062 34.0417 23.2917ZM23.2917 22.7004L26.66 19.3321C26.8259 19.1662 27.0228 19.0346 27.2395 18.9449C27.4563 18.8551 27.6885 18.8089 27.9231 18.8089C28.1577 18.8089 28.39 18.8551 28.6067 18.9449C28.8235 19.0346 29.0204 19.1662 29.1863 19.3321C29.3521 19.498 29.4837 19.6949 29.5735 19.9116C29.6632 20.1283 29.7095 20.3606 29.7095 20.5952C29.7095 20.8298 29.6632 21.0621 29.5735 21.2788C29.4837 21.4955 29.3521 21.6925 29.1863 21.8583L22.7542 28.2904C22.5884 28.4565 22.3915 28.5883 22.1748 28.6782C21.958 28.7681 21.7257 28.8144 21.491 28.8144C21.2564 28.8144 21.024 28.7681 20.8073 28.6782C20.5906 28.5883 20.3937 28.4565 20.2279 28.2904L13.7958 21.8583C13.4608 21.5233 13.2726 21.069 13.2726 20.5952C13.2726 20.1214 13.4608 19.6671 13.7958 19.3321C14.1308 18.9971 14.5852 18.8089 15.059 18.8089C15.5327 18.8089 15.9871 18.9971 16.3221 19.3321L19.7083 22.7004V7.16667C19.7083 6.18125 20.5146 5.375 21.5 5.375C22.4854 5.375 23.2917 6.18125 23.2917 7.16667V22.7004Z" fill="#3781E3"/>
</svg>
